<svg xmlns="http://www.w3.org/2000/svg" viewBox="0 0 96 96" fill="none">
  <rect width="96" height="96" rx="20" fill="#FAF7F0"/>
  <g stroke="#211D17" stroke-width="2.6" stroke-linecap="round">
    <path d="M43 11 A5 4.5 0 0 1 53 11"/>
    <rect x="41" y="13" width="14" height="4.6" rx="2.3" stroke-linejoin="round"/>
    <rect x="40" y="18.6" width="16" height="4.6" rx="2.3" stroke-linejoin="round"/>
    <path d="M41 23.4 L39.4 27.4"/>
    <path d="M55 23.4 L56.6 27.4"/>
  </g>
  <path d="M39.4 27.4 C36.6 32.4 33 36.5 30.5 42 C29.2 45 28.5 48 28.5 51 C28.5 62 37 70.5 48 70.5 C59 70.5 67.5 62 67.5 51 C67.5 48 66.8 45 65.5 42 C63 36.5 59.4 32.4 56.6 27.4" stroke="#211D17" stroke-width="2.6" stroke-linecap="round" stroke-linejoin="round"/>
  <g stroke="#211D17" stroke-width="2" stroke-linecap="round" stroke-linejoin="round">
    <path d="M43.5 28 C43 33 42 37 41 40.5"/>
    <path d="M48 28 C47.6 31.5 47 34.5 46.3 37.5"/>
    <path d="M52.5 28 C52.8 32 53 35 53.5 38"/>
    <path d="M41 40.5 L45 37.5 L45.8 43.5 L48.3 38.2 L49.5 41.8 L51.2 37.8 L53.5 38"/>
  </g>
  <g stroke="#A87C50" stroke-width="2.6" stroke-linecap="round">
    <path d="M29.6 32.6 L23.3 26.3"/>
    <path d="M23.9 41.3 L15.6 37.9"/>
    <path d="M22 51 L13 51"/>
    <path d="M23.9 60.8 L15.6 64.1"/>
    <path d="M29.6 69.4 L23.3 75.7"/>
    <path d="M37.9 74.9 L34.4 83.2"/>
    <path d="M48 77 L48 86"/>
    <path d="M58.1 74.9 L61.6 83.2"/>
    <path d="M66.4 69.4 L72.7 75.7"/>
    <path d="M72.1 60.8 L80.4 64.1"/>
    <path d="M74 51 L83 51"/>
    <path d="M66.4 32.6 L72.7 26.3"/>
  </g>
</svg>
