<svg xmlns="http://www.w3.org/2000/svg" viewBox="0 0 48 48" fill="none">
  <rect width="48" height="48" rx="10" fill="#FAF7F0"/>
  <path d="M20.5 7 A3.5 3 0 0 1 27.5 7" stroke="#211D17" stroke-width="2" stroke-linecap="round"/>
  <path d="M19.5 9.5 H28.5" stroke="#211D17" stroke-width="2" stroke-linecap="round"/>
  <path d="M20 12 H28" stroke="#211D17" stroke-width="2" stroke-linecap="round"/>
  <path d="M20.5 14 C18.5 16.5 15 20 15 24.5 C15 29.5 19 33.5 24 33.5 C29 33.5 33 29.5 33 24.5 C33 20 29.5 16.5 27.5 14" stroke="#211D17" stroke-width="2" stroke-linecap="round" stroke-linejoin="round"/>
  <path d="M21.5 14.5 L21.5 18 L23.5 22.5 L24 19 L24.5 22.5 L26.5 18 L26.5 14.5" stroke="#211D17" stroke-width="1.6" stroke-linecap="round" stroke-linejoin="round"/>
  <g stroke="#A87C50" stroke-width="2" stroke-linecap="round">
    <path d="M11.5 24.5 L7.5 24.5"/>
    <path d="M36.5 24.5 L40.5 24.5"/>
    <path d="M24 37 L24 41"/>
    <path d="M14.8 32.5 L12 35.3"/>
    <path d="M33.2 32.5 L36 35.3"/>
    <path d="M13.5 15.5 L10.7 12.7"/>
    <path d="M34.5 15.5 L37.3 12.7"/>
  </g>
</svg>
